Motion_kv03_j
version=1
nRows=6
nColumns=43
inDegrees=yes
endheader
time	pelvis_tilt	pelvis_list	pelvis_rotation	pelvis_tx	pelvis_ty	pelvis_tz	hip_flexion_r	hip_adduction_r	hip_rotation_r	knee_angle_r	ankle_angle_r	subtalar_angle_r	mtp_angle_r	hip_flexion_l	hip_adduction_l	hip_rotation_l	knee_angle_l	ankle_angle_l	subtalar_angle_l	mtp_angle_l	lumbar_extension	lumbar_bending	lumbar_rotation	neck_flexion	neck_lateral_bending	neck_rotation	arm_flex_r	arm_add_r	arm_rot_r	elbow_flex_r	pro_sup_r	wrist_flex_r	wrist_dev_r	hand_finger_flex_r	arm_flex_l	arm_add_l	arm_rot_l	elbow_flex_l	pro_sup_l	wrist_flex_l	wrist_dev_l	hand_finger_flex_l
      0.55750000	    -12.77503589	     59.34941834	    -76.82761167	     -0.01269922	      1.34123399	      0.74379914	     62.51750351	     -0.04723315	     -7.19633671	    -69.19201022	     16.28169270	    -14.64871446	     -5.55579085	     61.92442831	     -3.09935832	      4.54853859	    -72.44158387	     21.33387620	     -6.30734233	    -15.84725410	    -36.18503419	      2.81039577	      3.29777418	     57.33724152	      0.55906302	      1.42469887	    218.78907725	   -140.78650600	    178.83126351	     86.90178195	    157.23017533	    -47.68812207	    -18.75109437	     82.12139608	     46.77154010	    -36.54234790	      8.88748296	     86.76779373	    160.73297896	    -56.06650418	    -14.61526148	     90.00021046
      0.56000000	    -12.76817397	     59.49178823	    -76.92590647	     -0.01278478	      1.34522346	      0.74556076	     63.35820333	      0.10200478	     -6.82943177	    -70.75380510	     17.49890218	    -14.36321861	     -5.00274544	     62.86452617	     -3.11469967	      4.47206124	    -74.24542548	     22.00296913	     -5.88464246	    -15.67939249	    -36.33827624	      2.69210013	      3.41603198	     57.31227550	      0.57883397	      1.35850860	    219.33424203	   -140.98547293	    179.09684006	     86.12949562	    157.11414473	    -48.45269938	    -18.92006176	     82.37368707	     47.35365451	    -36.17574325	      9.13356836	     85.96113471	    160.89294293	    -56.68759309	    -15.00833111	     90.00021046
      0.56250000	    -12.74294231	     59.42026463	    -76.95919871	     -0.01250524	      1.34974413	      0.74801666	     63.85906413	      0.28479704	     -6.45227320	    -72.09461074	     18.60081931	    -14.75794234	     -4.77859030	     63.50519945	     -2.97368884	      4.56654185	    -75.88467628	     22.45061988	     -5.95872318	    -15.60126554	    -36.87121765	      2.67629018	      3.50765757	     57.92223891	      0.61295634	      1.34324698	    219.93632298	   -141.01239869	    179.32878491	     85.62616524	    157.15944572	    -48.54355666	    -19.00736976	     82.42976206	     47.89356984	    -35.77611451	      9.17130714	     85.42207847	    160.92877635	    -56.76325351	    -15.08117074	     90.00021046
      0.56500000	    -12.71541116	     59.37812682	    -77.04061000	     -0.01236826	      1.35396133	      0.75021049	     64.44696883	      0.46779690	     -6.11076889	    -73.54199872	     19.79088502	    -14.94292905	     -4.51178048	     64.22090682	     -2.90797492	      4.57414484	    -77.60269619	     23.00838328	     -5.85975006	    -15.50139867	    -37.27561201	      2.62862012	      3.59965764	     58.15019409	      0.62346699	      1.32310083	    220.56863365	   -141.13089447	    179.63578751	     84.99670424	    157.17933423	    -48.75682032	    -19.09954805	     82.49500124	     48.43771332	    -35.41801148	      9.28741654	     84.76957131	    161.03607239	    -56.92743220	    -15.26159953	     90.00021046
      0.56750000	    -12.50871719	     59.58744435	    -77.30205309	     -0.01237862	      1.35785220	      0.75196642	     65.37479502	      0.53492836	     -5.64197328	    -75.14568853	     21.00527972	    -14.16307378	     -3.79671576	     65.17889616	     -2.85352031	      4.41489559	    -79.31326553	     23.66170262	     -5.24791349	    -15.28636530	    -37.39685352	      2.42219826	      3.54481939	     58.42209280	      0.71338865	      1.29576278	    221.29083005	   -141.33272557	    180.23420313	     84.01142747	    156.77537931	    -50.35447869	    -19.37994706	     83.03778105	     48.89505420	    -35.10491130	      9.32523712	     83.94363828	    161.01663618	    -58.12210943	    -15.93574559	     90.00021046
      0.57000000	    -12.47790071	     59.42206814	    -77.37372313	     -0.01215530	      1.36217372	      0.75436804	     65.83149370	      0.72640562	     -5.36631341	    -76.55861830	     22.04071828	    -14.55968704	     -3.60718636	     65.76514494	     -2.74437435	      4.48853008	    -80.98430122	     24.10354553	     -5.35405060	    -15.21104115	    -37.95221030	      2.40993855	      3.64122520	     58.71978088	      0.69719446	      1.29503064	    221.94222097	   -141.44158445	    180.49053390	     83.43761948	    156.81696080	    -50.35688146	    -19.45806474	     83.10424430	     49.43661573	    -34.77184548	      9.42159459	     83.37865108	    161.06313487	    -58.09739847	    -16.00899723	     90.00021046
